<svg xmlns="http://www.w3.org/2000/svg" xmlns:xlink="http://www.w3.org/1999/xlink" width="300" height="400">
    <symbol viewBox="0 0 73.701 73.701" id="home">
        <g>
            <defs>
                <rect id="SVGID_5_" x="0.005" y="0.009" width="73.689" height="73.684"/>
            </defs>
            <clipPath id="SVGID_2_">
                <use xlink:href="#SVGID_5_"  overflow="visible"/>
            </clipPath>
            <path clip-path="url(#SVGID_2_)" d="M71.255,31.882L43.343,2.851c-1.734-1.804-4.055-2.795-6.539-2.795s-4.802,0.991-6.537,2.795
			L2.355,31.882c-2.88,2.996-2.51,5.584-2.034,6.667c0.339,0.768,1.485,2.879,4.785,2.879h4.091v22.332
			c0,5.07,3.644,9.844,8.823,9.844h11.884V49.97c0-2.535-0.385-3.949,2.206-3.949h9.391c2.59,0,2.207,1.414,2.207,3.949v23.633
			h11.881c5.178,0,8.824-4.773,8.824-9.844V41.427h4.09c3.301,0,4.447-2.111,4.787-2.879C73.765,37.466,74.136,34.878,71.255,31.882
			L71.255,31.882z M68.503,36.83H59.81v26.93c0,2.533-1.633,5.246-4.221,5.246h-7.283V49.97c0-5.072-1.625-8.543-6.805-8.543H32.11
			c-5.181,0-6.808,3.471-6.808,8.543v19.035h-7.282c-2.588,0-4.221-2.713-4.221-5.246V36.83H5.106c-0.08,0-0.155-0.314-0.222-0.32
			c0.159-0.279,0.433-0.984,0.888-1.456L33.689,6.041c0.833-0.867,2.01-1.4,3.15-1.389c1.142-0.012,2.248,0.521,3.082,1.389
			l27.916,29.013c0.455,0.471,0.73,1.176,0.889,1.456C68.658,36.515,68.583,36.83,68.503,36.83L68.503,36.83z M68.503,36.83"/>
        </g>
   </symbol>

    <symbol viewBox="0 0 73.701 73.701" id="eqp">
        <g>
            <path d="M43.443,20.577h16.732c1.033,0,1.873-0.874,1.873-1.948c0-1.072-0.84-1.946-1.873-1.946H43.443
		c-1.033,0-1.875,0.874-1.875,1.946C41.568,19.703,42.41,20.577,43.443,20.577L43.443,20.577z M65.753,26.026H50.416
		c-1.035,0-1.875,0.873-1.875,1.946s0.84,1.947,1.875,1.947h15.338c1.031,0,1.871-0.874,1.871-1.947
		C67.625,26.898,66.785,26.026,65.753,26.026L65.753,26.026z M44.835,26.026h-1.393c-1.033,0-1.875,0.872-1.875,1.946
		c0,1.073,0.842,1.947,1.875,1.947h1.393c1.035,0,1.875-0.874,1.875-1.947C46.71,26.898,45.871,26.026,44.835,26.026L44.835,26.026z
		 M65.753,32.365H50.416c-1.035,0-1.875,0.873-1.875,1.948c0,1.072,0.84,1.947,1.875,1.947h15.338c1.031,0,1.871-0.875,1.871-1.947
		C67.625,33.238,66.785,32.365,65.753,32.365L65.753,32.365z M44.835,32.364h-1.393c-1.033,0-1.875,0.874-1.875,1.949
		c0,1.071,0.842,1.946,1.875,1.946h1.393c1.035,0,1.875-0.875,1.875-1.946C46.71,33.238,45.871,32.364,44.835,32.364L44.835,32.364z
		 M65.753,38.922H50.416c-1.035,0-1.875,0.875-1.875,1.947c0,1.075,0.84,1.948,1.875,1.948h15.338c1.031,0,1.871-0.873,1.871-1.948
		C67.625,39.797,66.785,38.922,65.753,38.922L65.753,38.922z M44.835,38.922h-1.393c-1.033,0-1.875,0.875-1.875,1.949
		c0,1.073,0.842,1.946,1.875,1.946h1.393c1.035,0,1.875-0.873,1.875-1.946C46.71,39.797,45.871,38.922,44.835,38.922L44.835,38.922z
		 M28.003,29.877h-5.055V22.97c0-0.891-0.728-1.615-1.625-1.615c-0.891,0.001-1.614,0.724-1.615,1.615v9.017l0.034,0.034
		l0.001,0.092l0.147,0.148l0.061,0.121l0.046,0.047c0.301,0.437,0.797,0.695,1.327,0.698h6.678c0.891,0,1.615-0.729,1.615-1.625
		C29.618,30.605,28.894,29.877,28.003,29.877L28.003,29.877z M28.003,29.877"/>
            <g>
                <defs>
                    <rect id="SVGID_1_" x="0.084" y="4.003" width="73.533" height="65.096"/>
                </defs>
                <clipPath id="SVGID_2_">
                    <use xlink:href="#SVGID_1_"  overflow="visible"/>
                </clipPath>
                <path clip-path="url(#SVGID_2_)" d="M21.324,15.927c-3.737,0-7.253,1.459-9.901,4.104c-2.646,2.646-4.104,6.166-4.104,9.912
			c0,3.742,1.458,7.264,4.105,9.909c2.647,2.646,6.163,4.105,9.901,4.105c3.731,0,7.251-1.459,9.911-4.105
			c2.646-2.656,4.103-6.178,4.103-9.909c0-3.735-1.458-7.253-4.106-9.912C28.577,17.386,25.058,15.927,21.324,15.927L21.324,15.927z
			 M21.324,40.708c-2.881,0-5.586-1.117-7.615-3.147c-2.032-2.041-3.15-4.747-3.15-7.618s1.118-5.577,3.149-7.617
			c2.029-2.03,4.734-3.148,7.616-3.148s5.586,1.118,7.617,3.148c2.037,2.036,3.159,4.741,3.159,7.617
			c0,2.875-1.122,5.58-3.159,7.617C26.91,39.59,24.206,40.708,21.324,40.708L21.324,40.708z M21.324,40.708"/>
                <path clip-path="url(#SVGID_2_)" d="M73.529,8.829c-0.016-2.399-1.004-4.266-3.807-4.606c-1.387-0.17-2.801-0.173-4.205-0.177
			C59.544,4.032,53.57,4.05,47.593,4.05c-5.973,0-11.948-0.01-17.923-0.012C23.639,4.036,17.606,4.014,11.575,4.05
			C8.852,4.065,6.122,4.099,3.409,4.312C1.621,4.45,0.357,5.93,0.211,7.724c-0.105,1.285-0.123,2.58-0.125,3.87
			c-0.013,6.003-0.005,12.007-0.005,18.009c-0.001,6.003-0.013,12.004-0.005,18.006c0.005,2.557-0.038,5.115,0.096,7.666
			c0.106,2.022,1.271,3.271,3.292,3.603c1.29,0.211,2.625,0.186,3.939,0.191c5.111,0.02,10.223,0.009,15.335,0.01h7.751
			c0,1.399-0.048,2.661,0.012,3.917c0.056,1.18-0.1,1.624-0.911,1.756H19.482c-0.363,0-0.658,0.585-0.658,1.307v1.647
			c0,0.722,0.294,1.307,0.658,1.307h34.669c0.363,0,0.658-0.584,0.658-1.307v-1.647c0-0.721-0.295-1.307-0.658-1.307h-9.988
			c-1.223-0.03-1.01-0.208-1.02-2.073c0-0.344-0.01-0.688-0.01-1.032c-0.002-0.847,0-1.693,0-2.564c3.814,0,7.49-0.003,11.166,0
			c4.939,0.003,9.881,0.031,14.82-0.015c0.74-0.007,1.533-0.25,2.211-0.576c1.756-0.847,2.193-2.491,2.201-4.25
			c0.029-6.721,0.012-13.442,0.012-20.164C73.548,25.66,73.591,17.243,73.529,8.829L73.529,8.829z M34.91,53.849
			c0-1.052,0.854-1.906,1.907-1.906s1.907,0.854,1.907,1.906c0,1.054-0.854,1.908-1.907,1.908S34.91,54.902,34.91,53.849
			L34.91,53.849z M69.255,25.297c0.002,2.359,0,4.716,0.002,7.072c0.002,2.328,0.006,4.658,0.006,6.986
			c0.002,2.969,0.018,5.937-0.016,8.905c-0.012,1.087-0.604,1.718-1.74,1.764c-2.035,0.08-4.074,0.062-6.111,0.065
			c-4.189,0.009-8.383,0.003-12.574,0c-4.133-0.003-8.268-0.011-12.403-0.013c-4.105-0.002-8.211-0.001-12.316,0.001
			c-4.133,0.002-8.269,0.008-12.402,0.011c-1.407,0.001-2.813-0.003-4.22-0.003c-0.172,0-0.345,0.013-0.517,0.013
			c-2.063,0.002-2.662-0.532-2.687-2.595c-0.038-3.147-0.012-6.297-0.007-9.446c0.004-4.169,0.016-8.336,0.02-12.505
			c0.004-4.431-0.014-8.862,0.013-13.291c0.01-1.916,0.465-2.352,2.374-2.357C11.933,9.887,17.192,9.89,22.45,9.887
			c4.827-0.001,9.654,0,14.48,0c9.653-0.001,19.306-0.001,28.962,0c0.488,0,0.977,0.008,1.463,0.031
			c1.352,0.063,1.889,0.557,1.91,1.935c0.035,2.181-0.01,4.365-0.014,6.545C69.248,20.699,69.255,22.998,69.255,25.297
			L69.255,25.297z M69.255,25.297"/>
            </g>
        </g>
    </symbol>
    <symbol viewBox="0 0 73.701 73.701" id="maintain">
        <g>
            <path d="M71.15,42.479h-2.758c-0.275-0.974-0.664-1.897-1.152-2.757l1.988-1.989c0.893-0.894,0.893-2.342,0-3.236l-1.617-1.617
		c-0.893-0.893-2.34-0.893-3.236,0l-2.021,2.024c-0.811-0.442-1.676-0.789-2.58-1.046v-2.757c0-1.258-1.02-2.276-2.277-2.276H55.22
		c-1.256,0-2.277,1.019-2.277,2.276v2.757c-0.938,0.267-1.832,0.634-2.668,1.1l-2.076-2.078c-0.893-0.893-2.342-0.893-3.236,0
		l-1.617,1.617c-0.893,0.894-0.893,2.343,0,3.236l2.076,2.076c-0.465,0.837-0.832,1.73-1.098,2.67h-2.756
		c-1.258,0-2.275,1.02-2.275,2.275v2.274c0,1.257,1.02,2.275,2.275,2.275h2.758c0.256,0.905,0.604,1.771,1.043,2.58l-2.023,2.022
		c-0.893,0.894-0.893,2.34,0,3.234l1.619,1.617c0.893,0.893,2.342,0.893,3.236,0l1.986-1.99c0.861,0.49,1.785,0.877,2.758,1.152
		v2.759c0,1.257,1.02,2.275,2.277,2.275h2.275c1.258,0,2.277-1.02,2.277-2.275V57.92c0.938-0.266,1.834-0.633,2.668-1.099
		l1.936,1.937c0.893,0.893,2.34,0.893,3.232,0l1.617-1.617c0.895-0.895,0.895-2.341,0-3.234l-1.934-1.936
		c0.465-0.836,0.832-1.73,1.098-2.668h2.76c1.256,0,2.275-1.02,2.275-2.275v-2.276C73.425,43.498,72.406,42.479,71.15,42.479
		L71.15,42.479z M56.359,52.718c-3.77,0-6.826-3.055-6.826-6.825s3.055-6.826,6.826-6.826c3.77,0,6.824,3.056,6.824,6.826
		C63.187,49.663,60.128,52.718,56.359,52.718L56.359,52.718z M56.359,42.479c-1.885,0-3.414,1.528-3.414,3.412
		s1.529,3.413,3.414,3.413s3.414-1.529,3.414-3.413S58.244,42.479,56.359,42.479L56.359,42.479z M56.359,42.479"/>
            <path d="M32.322,5.902h23.973c3.727,0,6.365,2.234,6.553,5.992c0.217,4.658,0.063,9.331,0.094,14.005
		c0.014,1.288-0.498,1.553-1.77,1.319c-2.361-0.45-3.557-1.429-3.34-4.114c0.264-3.137,0.016-6.318,0.078-9.487
		c0.031-1.91-0.807-2.701-2.701-2.701c-15.666,0.031-31.332,0.016-46.982,0.016c-2.189,0-3.184,1.103-3.168,3.229
		c0,8.306,0.031,16.613-0.031,24.92c-0.016,1.863,0.979,1.987,2.406,1.987c8.943-0.031,17.871-0.016,26.814,0
		c1.258,0,2.763-0.451,2.654,1.847c-0.092,1.895-0.264,3.137-2.669,3.105c-8.539-0.093-17.078-0.03-25.633-0.03
		c-0.715,0-1.43,0-2.144,0.03c-0.667,0.031-1.335,0.201-1.304,1.04c0.03,0.746,0.574,1.104,1.273,1.165
		c0.791,0.078,1.583,0.094,2.375,0.094h25.385c2.966,0,4.363,1.319,4.488,4.16c0.014,0.233,0.045,0.605-0.063,0.684
		c-2.469,1.553-1.104,4.006-1.415,6.04c-0.326,2.096,0.543,3.104,2.78,2.903c1.412-0.125,2.857-0.063,4.27,0.046
		c1.6,0.124,2.781,0.932,2.734,2.671c-0.047,1.631-1.197,2.438-2.688,2.438c-8.073,0.047-16.131,0.047-24.205-0.016
		c-1.49-0.016-2.592-0.854-2.592-2.516c0-1.63,1.023-2.359,2.545-2.593c4.238-0.668,4.238-0.668,4.224-5.016
		c0-3.461,0-3.461-3.556-3.477c-4.27,0-8.539,0.03-12.809-0.016c-5.73-0.063-7.888-2.267-7.888-7.935
		c-0.017-10.448-0.017-20.882,0-31.332c0.016-5.278,3.137-8.445,8.384-8.445C16.345,5.887,24.326,5.902,32.322,5.902L32.322,5.902z
		 M33.642,57.991c0-0.714-0.031-1.428,0.016-2.127c0.093-1.396-0.249-2.235-1.926-2.251c-1.691-0.015-2.252,0.73-2.174,2.297
		c0.063,1.413,0.047,2.843,0.016,4.271c-0.03,1.46,0.762,1.894,2.097,1.91c1.382,0,2.095-0.498,1.987-1.957
		C33.611,59.421,33.642,58.706,33.642,57.991L33.642,57.991z M33.642,57.991"/>
            <rect x="0" y="5.834" fill="none" width="72.409" height="61.584"/>
        </g>
    </symbol>

     <symbol viewBox="0 0 73.701 73.701" id="record">
         <g>
             <path d="M55.919,54.932H39.857c-1.05,0-1.876,0.859-1.876,1.877c0,1.051,0.858,1.877,1.876,1.877h16.063
		c1.017,0,1.876-0.795,1.876-1.877S56.936,54.932,55.919,54.932L55.919,54.932z M39.729,41.033h16.19
		c1.017,0,1.876-0.859,1.876-1.877s-0.859-1.877-1.876-1.877h-16.19c-1.049,0-1.876,0.859-1.876,1.877S38.649,41.033,39.729,41.033
		L39.729,41.033z M39.729,41.033"/>
             <path d="M69.023,23.857L45.741,0.672c-0.413-0.414-1.018-0.67-1.653-0.67h-26.24c-5.629,0-9.161,3.531-9.161,9.16v31.713
		c1.018-0.225,2.036-0.352,3.181-0.352c0.508,0,1.017,0.033,1.495,0.096V9.131c0-3.053,1.432-4.484,4.485-4.484h23.281v14.248
		c0,5.631,3.531,9.193,9.161,9.193h14.758v36.545c0,3.055-1.432,4.293-4.484,4.293H36.358c-0.159,1.496,0.095,3.785-0.032,4.676
		h24.204c5.63,0,9.191-3.34,9.191-9v-39.09C69.692,24.877,69.501,24.271,69.023,23.857L69.023,23.857z M50.29,23.412
		c-3.054,0-4.485-1.432-4.485-4.549V7.254l16.253,16.158H50.29z M50.29,23.412"/>
             <rect x="3.979" fill="none" width="65.725" height="73.701"/>
             <path d="M39.729,49.811h16.19c1.017,0,1.876-0.857,1.876-1.875c0-1.02-0.859-1.877-1.876-1.877h-16.19
		c-1.049,0-1.876,0.857-1.876,1.877C37.853,48.953,38.649,49.811,39.729,49.811L39.729,49.811z M22.045,26.402h11.037
		c1.017,0,1.876-0.859,1.876-1.877s-0.859-1.877-1.876-1.877H22.045c-1.018,0-1.876,0.859-1.876,1.877S21.028,26.402,22.045,26.402
		L22.045,26.402z M22.045,17.941h11.037c1.017,0,1.876-0.857,1.876-1.877c0-1.018-0.859-1.875-1.876-1.875H22.045
		c-1.018,0-1.876,0.857-1.876,1.875C20.169,17.084,21.028,17.941,22.045,17.941L22.045,17.941z M19.501,65.777h-0.127
		c0-0.033-0.032,0-0.032,0.031c0,0.033,0.032,0.033,0.032,0.033h0.127c0.032,0,0.032-0.033,0.032-0.033
		C19.533,65.777,19.501,65.777,19.501,65.777L19.501,65.777z M33.272,31.143H22.364c-1.049,0-1.909,0.857-1.909,1.906
		c0,1.051,0.859,1.908,1.909,1.908h10.909c1.05,0,1.909-0.857,1.909-1.908C35.181,32,34.291,31.143,33.272,31.143L33.272,31.143z
		 M26.753,52.834h3.562v1.43h-3.562V52.834z M6.81,47.141h3.563v1.43H6.81V47.141z M26.753,49.971h3.562v1.432h-3.562V49.971z
		 M26.753,49.971"/>
             <path d="M11.803,44.277H5.411c-0.796,0-1.432,0.637-1.432,1.432V71.82c0,0.797,0.636,1.432,1.432,1.432h6.392
		c0.795,0,1.432-0.635,1.432-1.432V45.709C13.235,44.914,12.599,44.277,11.803,44.277L11.803,44.277z M8.591,70.391
		c-1.368,0-2.481-1.113-2.481-2.48c0-1.369,1.113-2.482,2.481-2.482s2.481,1.113,2.481,2.482
		C11.104,69.277,9.959,70.391,8.591,70.391L8.591,70.391z M11.803,60.436c0,0.795-0.636,1.43-1.431,1.43H6.81
		c-0.795,0-1.431-0.635-1.431-1.43V47.141c0-0.797,0.636-1.432,1.431-1.432h3.563c0.795,0,1.431,0.635,1.431,1.432V60.436z
		 M11.803,60.436"/>
             <path d="M6.81,52.834h3.563v1.43H6.81V52.834z M6.81,49.971h3.563v1.432H6.81V49.971z M26.753,47.141h3.562v1.43h-3.562V47.141z
		 M21.759,44.277h-6.394c-0.795,0-1.431,0.637-1.431,1.432V71.82c0,0.797,0.636,1.432,1.431,1.432h6.394
		c0.795,0,1.431-0.635,1.431-1.432V45.709C23.19,44.914,22.555,44.277,21.759,44.277L21.759,44.277z M18.547,70.391
		c-1.368,0-2.481-1.113-2.481-2.48c0-1.369,1.113-2.482,2.481-2.482s2.481,1.113,2.481,2.482
		C21.059,69.277,19.947,70.391,18.547,70.391L18.547,70.391z M21.759,60.436c0,0.795-0.636,1.43-1.431,1.43h-3.563
		c-0.795,0-1.431-0.635-1.431-1.43V47.141c0-0.797,0.636-1.432,1.431-1.432h3.563c0.795,0,1.431,0.635,1.431,1.432V60.436z
		 M21.759,60.436"/>
             <path d="M16.766,47.141h3.563v1.43h-3.563V47.141z M31.714,44.277h-6.393c-0.795,0-1.431,0.637-1.431,1.432V71.82
		c0,0.797,0.636,1.432,1.431,1.432h6.393c0.795,0,1.432-0.635,1.432-1.432V45.709C33.146,44.914,32.51,44.277,31.714,44.277
		L31.714,44.277z M28.535,70.391c-1.369,0-2.482-1.113-2.482-2.48c0-1.369,1.113-2.482,2.482-2.482c1.367,0,2.48,1.113,2.48,2.482
		C31.015,69.277,29.901,70.391,28.535,70.391L28.535,70.391z M31.714,60.436c0,0.795-0.636,1.43-1.432,1.43h-3.529
		c-0.796,0-1.432-0.635-1.432-1.43V47.141c0-0.797,0.636-1.432,1.432-1.432h3.562c0.795,0,1.432,0.635,1.432,1.432v13.295H31.714z
		 M16.766,49.971h3.563v1.432h-3.563V49.971z M16.766,52.834h3.563v1.43h-3.563V52.834z M16.766,52.834"/>
         </g>
     </symbol>

    <symbol viewBox="0 0 73.701 73.701" id="manager">
        <g>
            <path d="M67.843,27.079c3.751-2.495,6.226-6.757,6.226-11.599c0-7.689-6.231-13.925-13.924-13.925
		c-7.689,0-13.925,6.232-13.925,13.925c0,4.842,2.476,9.104,6.226,11.599c-7.167,2.862-12.26,9.596-12.52,17.515
		c0,0,0.274,2.268,2.765,2.145c1.99,0.123,3.124-2.145,3.124-2.145c1.348-8.627,6.211-13.313,14.33-13.313
		c8.118,0,13.417,4.686,14.766,13.313c0,0,1.001,1.895,2.743,2.019c2.324,0.266,2.712-2.019,2.712-2.019
		C80.104,36.678,75.011,29.939,67.843,27.079L67.843,27.079z M60.145,23.864c-4.631,0-8.385-3.754-8.385-8.384
		c0-4.632,3.754-8.385,8.385-8.385c4.63,0,8.384,3.753,8.384,8.385C68.529,20.11,64.775,23.864,60.145,23.864L60.145,23.864z
		 M60.145,23.864"/>
            <path d="M80.288,51.043v-0.427c0-1.5-1.291-2.716-2.883-2.716s-2.88,1.216-2.88,2.716v15.631c0,0.067,0.004,0.135,0.011,0.202
		H12.275V7.729l11.224,0.008c0.178,0.037,0.36,0.058,0.546,0.058h15.63c1.5,0,2.716-1.29,2.716-2.882
		c0-1.591-1.216-2.881-2.716-2.881H11.437c-2.553,0-4.622,2.068-4.622,4.622v60.87c0,2.553,2.068,4.621,4.622,4.621h64.28
		c2.553,0,4.623-2.067,4.623-4.621l0.024-16.483L80.288,51.043z M80.288,51.043"/>
            <path d="M19.549,22.702H35.18c1.5,0,2.716-1.29,2.716-2.881c0-1.592-1.216-2.883-2.716-2.883H19.549
		c-1.499,0-2.715,1.291-2.715,2.883C16.834,21.412,18.05,22.702,19.549,22.702L19.549,22.702z M19.549,22.702"/>
            <path d="M19.151,39.99h15.63c1.5,0,2.716-1.291,2.716-2.882s-1.216-2.881-2.716-2.881h-15.63c-1.499,0-2.715,1.29-2.715,2.881
		C16.436,38.699,17.652,39.99,19.151,39.99L19.151,39.99z M19.151,39.99"/>
            <path d="M16.436,55.649c0,1.553,1.187,2.813,2.65,2.813h43.055c1.464,0,2.65-1.26,2.65-2.813c0-1.555-1.187-2.813-2.65-2.813
		H19.086C17.623,52.837,16.436,54.095,16.436,55.649L16.436,55.649z M16.436,55.649"/>
        </g>
    </symbol>

    <symbol viewBox="0 0 73.701 73.701"  id="work">
        <g>
            <path d="M36.889-0.083c-20.518,0-36.934,16.415-36.934,36.933c0,20.519,16.594,36.934,36.934,36.934
		c20.518,0,36.931-16.593,36.931-36.934C73.82,16.332,57.407-0.083,36.889-0.083L36.889-0.083z M51.519,7.768
		c9.1,4.64,15.702,13.203,17.484,23.552L50.627,41.847c0.534-1.606,0.892-3.214,0.892-4.997V7.768z M36.889,4.377
		c3.925,0,7.672,0.715,11.24,1.963v21.232c-1.07-1.249-2.498-2.497-3.925-3.212L19.047,9.731C24.221,6.34,30.288,4.377,36.889,4.377
		L36.889,4.377z M4.417,36.85c0-9.99,4.639-19.09,11.775-24.979l18.199,10.707c-1.785,0.355-3.391,0.891-4.818,1.783L4.417,38.813
		V36.85z M22.258,37.207v28.726C13.337,61.294,6.557,52.729,4.774,42.38L23.15,31.854c-0.534,1.427-0.892,3.211-0.892,4.995V37.207z
		 M25.649,36.85c0-6.245,4.996-11.24,11.24-11.24c6.245,0,11.24,4.995,11.24,11.24c0,4.104-2.141,7.672-5.353,9.635l-0.179,0.179
		c-1.605,0.892-3.568,1.428-5.531,1.428c-1.783,0-3.568-0.536-5.174-1.249l-0.357-0.179c-3.211-1.963-5.531-5.353-5.531-9.456
		L25.649,36.85z M36.889,69.322c-3.926,0-7.672-0.713-11.24-1.963V46.128c1.07,1.248,2.498,2.498,3.924,3.212L54.73,63.97
		C49.557,67.359,43.49,69.322,36.889,69.322L36.889,69.322z M57.763,61.828L39.387,51.123c1.783-0.355,3.39-0.892,4.817-1.783
		l25.157-14.453v1.963C69.362,46.842,64.899,55.763,57.763,61.828L57.763,61.828z M57.763,61.828"/>
        </g>
    </symbol>
    <symbol viewBox="0 0 73.701 73.701"  id="setup">
        <g>
            <path d="M71.214,7.065H2.563C1.149,7.065,0,8.214,0,9.628v57.299c0,1.417,1.147,2.563,2.563,2.563h68.651
		c1.414,0,2.561-1.147,2.561-2.563V9.628C73.775,8.214,72.628,7.065,71.214,7.065L71.214,7.065z M63.532,12.265
		c1.429,0,2.591,1.158,2.591,2.589c0,1.429-1.162,2.587-2.591,2.587c-1.428,0-2.586-1.158-2.586-2.587
		C60.946,13.423,62.104,12.265,63.532,12.265L63.532,12.265z M54.309,12.265c1.429,0,2.589,1.158,2.589,2.589
		c0,1.429-1.16,2.587-2.589,2.587s-2.589-1.158-2.589-2.587C51.722,13.423,52.88,12.265,54.309,12.265L54.309,12.265z
		 M45.087,12.265c1.43,0,2.589,1.158,2.589,2.589c0,1.429-1.159,2.587-2.589,2.587c-1.429,0-2.588-1.158-2.588-2.587
		C42.5,13.423,43.658,12.265,45.087,12.265L45.087,12.265z M68.652,64.367H5.125V22.097h63.526V64.367z M68.652,64.367"/>
            <path d="M51.778,39.594H49c-0.277-0.981-0.668-1.911-1.16-2.776l2.001-2.003c0.898-0.899,0.898-2.356,0-3.257l-1.627-1.628
		c-0.899-0.899-2.357-0.899-3.257,0l-2.037,2.036c-0.814-0.445-1.687-0.794-2.596-1.052v-2.776c0-1.266-1.027-2.291-2.293-2.291
		h-2.291c-1.264,0-2.292,1.025-2.292,2.291v2.776c-0.943,0.268-1.846,0.638-2.686,1.106l-2.09-2.091
		c-0.899-0.899-2.357-0.899-3.257,0l-1.63,1.628c-0.898,0.898-0.898,2.357,0,3.257l2.091,2.09c-0.468,0.844-0.839,1.742-1.105,2.689
		h-2.775c-1.266,0-2.29,1.025-2.29,2.29v2.288c0,1.266,1.026,2.292,2.29,2.292h2.778c0.257,0.91,0.607,1.782,1.05,2.597
		l-2.037,2.034c-0.899,0.901-0.899,2.357,0,3.258l1.629,1.628c0.898,0.899,2.357,0.899,3.257,0l2.001-2.003
		c0.866,0.493,1.795,0.883,2.776,1.161v2.776c0,1.267,1.026,2.29,2.291,2.29h2.292c1.266,0,2.292-1.025,2.292-2.29v-2.776
		c0.944-0.269,1.846-0.639,2.687-1.107l1.946,1.949c0.898,0.899,2.356,0.899,3.256,0l1.629-1.628c0.898-0.9,0.898-2.356,0-3.258
		l-1.947-1.946c0.469-0.842,0.839-1.742,1.105-2.687h2.778c1.264,0,2.289-1.025,2.289-2.291V41.88
		C54.068,40.619,53.042,39.594,51.778,39.594L51.778,39.594z M36.888,49.9c-3.796,0-6.874-3.076-6.874-6.871
		c0-3.796,3.076-6.871,6.874-6.871c3.794,0,6.871,3.075,6.871,6.871C43.76,46.824,40.682,49.9,36.888,49.9L36.888,49.9z
		 M36.888,39.594c-1.899,0-3.437,1.537-3.437,3.434s1.538,3.437,3.437,3.437c1.895,0,3.437-1.54,3.437-3.437
		S38.783,39.594,36.888,39.594L36.888,39.594z M36.888,39.594"/>
        </g>
    </symbol>

	<symbol viewBox="71.653 71.653 56.693 56.693" id="person">
     <path d="M125.354,125.566c0-0.243-0.044-0.475-0.108-0.696c-1.202-9.021-7.096-16.559-15.174-20.032
	c4.696-3.217,7.777-8.615,7.777-14.733c0-9.857-7.991-17.847-17.848-17.847c-9.856,0-17.846,7.99-17.846,17.847
	c0,6.122,3.083,11.521,7.782,14.737c-8,3.444-13.859,10.873-15.133,19.785c-0.116,0.29-0.185,0.607-0.185,0.938l0.023,0.235
	c0,1.407,1.139,2.546,2.544,2.546c1.406,0,2.544-1.139,2.544-2.546l-0.003-0.031h0.052c1.188-9.724,9.219-17.332,19.134-17.855
	c0.36,0.021,0.721,0.035,1.086,0.035c0.366,0,0.73-0.014,1.09-0.035c9.916,0.521,17.947,8.132,19.138,17.855h0.055l0.004,0.033
	c0,1.405,1.139,2.544,2.545,2.544s2.546-1.139,2.546-2.544L125.354,125.566z M101.14,102.798c-0.376-0.016-0.751-0.028-1.13-0.028
	c-0.385,0-0.766,0.013-1.147,0.029c-6.507-0.574-11.613-6.033-11.613-12.69c0-7.04,5.708-12.748,12.748-12.748
	s12.747,5.708,12.747,12.748C112.746,96.764,107.644,102.222,101.14,102.798z"/>
</symbol>

	<symbol  viewBox="-1.097 -1.097 56.693 56.693"  id="exit">
     <path d="M39.877,6.498c-1.261-0.704-2.875-0.27-3.578,1.013c-0.703,1.262-0.269,2.854,1.014,3.578
	c6.618,3.723,10.733,10.734,10.733,18.324c0,11.582-9.411,20.993-20.992,20.993c-11.582,0-20.971-9.431-20.971-21.013
	c0-7.694,4.198-14.747,10.961-18.449c1.282-0.703,1.737-2.296,1.055-3.557c-0.703-1.262-2.296-1.738-3.557-1.055
	C6.104,10.944,0.85,19.775,0.85,29.393c0,14.477,11.768,26.245,26.225,26.245c14.457,0,26.225-11.768,26.225-26.245
	C53.3,19.92,48.171,11.151,39.877,6.498z M27.179,34.129c1.447,0,2.626-1.179,2.626-2.626V1.865c0-1.447-1.179-2.626-2.626-2.626
	c-1.448,0-2.627,1.179-2.627,2.626v29.638C24.552,32.95,25.731,34.129,27.179,34.129z"/>
</symbol>
    <use xlink:href="#setup"/>
</svg>